<svg width="638" height="638" viewBox="0 0 638 638" fill="none" xmlns="http://www.w3.org/2000/svg">
<path opacity="0.2" d="M493 319C493 366.323 474.108 409.234 443.454 440.602C411.861 472.932 367.774 493 319 493C265.429 493 217.513 468.791 185.595 430.716C160.256 400.49 145 361.527 145 319C145 271.677 163.892 228.766 194.546 197.398C226.139 165.068 270.226 145 319 145C367.774 145 411.861 165.068 443.454 197.398C474.108 228.766 493 271.677 493 319Z" stroke="white" stroke-width="32"/>
<path opacity="0.6" d="M243.651 347.768V361.088L234.699 347.768H232.275V365H234.483V351.128L243.891 365H245.883V347.768H243.651ZM258.858 354.152C258.33 353.528 257.706 353.048 256.962 352.712C256.218 352.376 255.402 352.208 254.538 352.208C253.674 352.208 252.882 352.376 252.138 352.712C251.394 353.048 250.746 353.528 250.218 354.152C249.714 354.728 249.354 355.4 249.09 356.192C248.826 356.984 248.706 357.824 248.706 358.736C248.706 359.648 248.826 360.488 249.09 361.28C249.354 362.072 249.714 362.744 250.218 363.32C250.746 363.944 251.394 364.424 252.138 364.76C252.882 365.096 253.674 365.264 254.538 365.264C255.402 365.264 256.218 365.096 256.962 364.76C257.706 364.424 258.33 363.944 258.858 363.32C259.362 362.744 259.722 362.072 259.986 361.28C260.25 360.488 260.37 359.648 260.37 358.736C260.37 357.824 260.25 356.984 259.986 356.192C259.722 355.4 259.362 354.728 258.858 354.152ZM254.538 354.032C255.642 354.032 256.53 354.464 257.202 355.304C257.85 356.144 258.186 357.296 258.186 358.736C258.186 360.152 257.85 361.304 257.202 362.144C256.53 362.984 255.642 363.416 254.538 363.416C253.434 363.416 252.546 362.984 251.898 362.144C251.226 361.304 250.89 360.152 250.89 358.736C250.89 357.296 251.226 356.144 251.898 355.304C252.546 354.464 253.434 354.032 254.538 354.032ZM266.812 365.12C267.148 365.12 267.484 365.096 267.796 365.072C268.108 365.048 268.42 365 268.708 364.928V363.08C268.492 363.128 268.276 363.152 268.084 363.176C267.868 363.2 267.628 363.224 267.34 363.224C266.668 363.224 266.212 363.104 265.972 362.864C265.708 362.624 265.588 362.216 265.588 361.664V354.296H268.444V352.448H265.588V348.776H263.452V352.448H261.508V354.296H263.452V362C263.452 363.08 263.716 363.872 264.244 364.376C264.748 364.88 265.612 365.12 266.812 365.12ZM281.351 365.264C282.575 365.264 283.655 364.952 284.567 364.304C285.479 363.68 286.127 362.792 286.511 361.664L284.615 360.992C284.423 361.736 284.039 362.336 283.463 362.744C282.887 363.176 282.191 363.392 281.351 363.392C280.247 363.392 279.359 363.008 278.663 362.216C277.967 361.424 277.607 360.392 277.535 359.072H286.607V358.352C286.607 356.504 286.127 355.016 285.167 353.888C284.207 352.76 282.911 352.208 281.255 352.208C280.415 352.208 279.623 352.376 278.879 352.712C278.135 353.048 277.511 353.528 276.983 354.176C276.479 354.776 276.119 355.448 275.855 356.24C275.591 357.032 275.471 357.848 275.471 358.736C275.471 359.648 275.615 360.488 275.879 361.28C276.143 362.072 276.503 362.744 277.007 363.32C277.535 363.968 278.183 364.448 278.927 364.76C279.671 365.096 280.463 365.264 281.351 365.264ZM281.231 354.056C282.215 354.056 282.983 354.368 283.535 354.968C284.087 355.568 284.399 356.384 284.423 357.416H277.655C277.847 356.36 278.255 355.544 278.903 354.944C279.527 354.344 280.295 354.056 281.231 354.056ZM291.456 365V357.512C291.456 356.552 291.768 355.76 292.392 355.136C292.992 354.536 293.736 354.224 294.6 354.224C295.44 354.224 296.088 354.488 296.544 355.016C297 355.544 297.216 356.312 297.216 357.296V365H299.376V356.72C299.376 355.352 298.992 354.248 298.248 353.432C297.504 352.616 296.472 352.208 295.2 352.208C294.432 352.208 293.736 352.376 293.088 352.712C292.44 353.048 291.888 353.528 291.456 354.152V352.448H289.296V365H291.456ZM312.131 354.152C311.603 353.528 310.979 353.048 310.235 352.712C309.491 352.376 308.675 352.208 307.811 352.208C306.947 352.208 306.155 352.376 305.411 352.712C304.667 353.048 304.019 353.528 303.491 354.152C302.987 354.728 302.627 355.4 302.363 356.192C302.099 356.984 301.979 357.824 301.979 358.736C301.979 359.648 302.099 360.488 302.363 361.28C302.627 362.072 302.987 362.744 303.491 363.32C304.019 363.944 304.667 364.424 305.411 364.76C306.155 365.096 306.947 365.264 307.811 365.264C308.675 365.264 309.491 365.096 310.235 364.76C310.979 364.424 311.603 363.944 312.131 363.32C312.635 362.744 312.995 362.072 313.259 361.28C313.523 360.488 313.643 359.648 313.643 358.736C313.643 357.824 313.523 356.984 313.259 356.192C312.995 355.4 312.635 354.728 312.131 354.152ZM307.811 354.032C308.915 354.032 309.803 354.464 310.475 355.304C311.123 356.144 311.459 357.296 311.459 358.736C311.459 360.152 311.123 361.304 310.475 362.144C309.803 362.984 308.915 363.416 307.811 363.416C306.707 363.416 305.819 362.984 305.171 362.144C304.499 361.304 304.163 360.152 304.163 358.736C304.163 357.296 304.499 356.144 305.171 355.304C305.819 354.464 306.707 354.032 307.811 354.032ZM324.19 352.448V360.008C324.19 360.944 323.878 361.736 323.278 362.336C322.678 362.96 321.934 363.272 321.046 363.272C320.182 363.272 319.534 363.008 319.102 362.504C318.646 362 318.43 361.28 318.43 360.296V352.448H316.27V360.752C316.27 362.12 316.654 363.224 317.398 364.04C318.142 364.856 319.174 365.264 320.47 365.264C321.238 365.264 321.934 365.096 322.582 364.736C323.23 364.4 323.758 363.92 324.19 363.272V365H326.35V352.448H324.19ZM340.569 352.448H338.409V354.296C338.049 353.648 337.545 353.144 336.849 352.76C336.153 352.4 335.409 352.208 334.569 352.208C333.729 352.208 332.985 352.376 332.289 352.688C331.593 353 331.017 353.48 330.513 354.104C330.057 354.656 329.721 355.304 329.481 356.048C329.241 356.792 329.121 357.608 329.121 358.448C329.121 359.288 329.241 360.08 329.481 360.824C329.721 361.568 330.057 362.24 330.513 362.816C331.017 363.416 331.593 363.896 332.289 364.208C332.985 364.544 333.729 364.712 334.569 364.712C335.409 364.712 336.153 364.52 336.849 364.136C337.545 363.776 338.049 363.272 338.409 362.624V364.04C338.409 365.264 338.097 366.176 337.473 366.824C336.849 367.472 335.937 367.784 334.737 367.784C333.849 367.784 333.105 367.568 332.505 367.112C331.905 366.656 331.497 366.032 331.281 365.24L329.265 366.008C329.601 367.136 330.249 368.024 331.209 368.648C332.169 369.272 333.345 369.584 334.737 369.584C336.513 369.584 337.929 369.08 338.985 368.048C340.041 367.016 340.569 365.624 340.569 363.872V352.448ZM338.433 358.712C338.433 359.96 338.121 360.944 337.473 361.688C336.825 362.432 335.985 362.816 334.953 362.816C333.825 362.816 332.937 362.408 332.289 361.616C331.617 360.824 331.281 359.768 331.281 358.448C331.281 357.128 331.617 356.072 332.265 355.28C332.913 354.488 333.825 354.104 334.953 354.104C335.985 354.104 336.825 354.488 337.473 355.232C338.121 355.976 338.433 356.984 338.433 358.256V358.712ZM346.323 365V357.512C346.323 356.552 346.635 355.76 347.259 355.136C347.859 354.536 348.603 354.224 349.467 354.224C350.307 354.224 350.955 354.488 351.411 355.016C351.867 355.544 352.083 356.312 352.083 357.296V365H354.243V356.72C354.243 355.352 353.859 354.248 353.115 353.432C352.371 352.616 351.339 352.208 350.067 352.208C349.299 352.208 348.603 352.376 347.955 352.712C347.307 353.048 346.755 353.528 346.323 354.152V347.768H344.163V365H346.323ZM367.381 365.264C368.221 365.264 368.965 365.072 369.661 364.712C370.357 364.352 370.885 363.824 371.269 363.176V365H373.429V347.768H371.269V354.272C370.861 353.624 370.333 353.12 369.661 352.76C368.965 352.4 368.221 352.208 367.381 352.208C366.541 352.208 365.749 352.376 365.053 352.712C364.357 353.072 363.757 353.576 363.253 354.224C362.821 354.824 362.485 355.496 362.269 356.264C362.029 357.032 361.909 357.848 361.909 358.736C361.909 359.6 362.029 360.416 362.269 361.184C362.485 361.976 362.821 362.648 363.277 363.248C363.781 363.896 364.381 364.4 365.077 364.736C365.773 365.096 366.541 365.264 367.381 365.264ZM371.317 359.192C371.317 360.464 370.981 361.496 370.333 362.24C369.661 362.984 368.797 363.368 367.765 363.368C366.637 363.368 365.749 362.936 365.101 362.096C364.429 361.256 364.093 360.152 364.093 358.736C364.093 357.32 364.429 356.192 365.077 355.352C365.725 354.512 366.637 354.104 367.765 354.104C368.797 354.104 369.661 354.488 370.333 355.232C370.981 355.976 371.317 357.008 371.317 358.304V359.192ZM384.007 363.584C384.127 364.184 384.463 364.592 385.015 364.832C385.567 365.072 386.311 365.12 387.295 365V363.272C386.863 363.368 386.527 363.344 386.311 363.176C386.071 363.032 385.951 362.768 385.951 362.384V356.264C385.951 354.968 385.567 353.96 384.775 353.264C383.983 352.568 382.879 352.208 381.415 352.208C380.191 352.208 379.111 352.52 378.223 353.144C377.335 353.792 376.711 354.632 376.399 355.712L378.439 356.24C378.631 355.52 378.967 354.992 379.471 354.632C379.951 354.272 380.575 354.104 381.343 354.104C382.159 354.104 382.783 354.296 383.191 354.68C383.599 355.064 383.815 355.616 383.815 356.36V356.888L380.767 357.512C379.087 357.872 377.887 358.376 377.143 359.024C376.399 359.672 376.015 360.536 376.015 361.616C376.015 362.696 376.399 363.56 377.191 364.208C377.959 364.88 378.943 365.216 380.143 365.216C380.959 365.216 381.703 365.072 382.399 364.784C383.071 364.496 383.599 364.088 384.007 363.584ZM380.407 363.464C379.711 363.464 379.159 363.296 378.751 362.936C378.343 362.6 378.151 362.12 378.151 361.52C378.151 360.896 378.391 360.392 378.871 360.008C379.327 359.648 380.167 359.336 381.367 359.096L383.815 358.568V360.728C383.815 361.52 383.479 362.168 382.831 362.672C382.183 363.2 381.367 363.464 380.407 363.464ZM393.328 365.12C393.664 365.12 394 365.096 394.312 365.072C394.624 365.048 394.936 365 395.224 364.928V363.08C395.008 363.128 394.792 363.152 394.6 363.176C394.384 363.2 394.144 363.224 393.856 363.224C393.184 363.224 392.728 363.104 392.488 362.864C392.224 362.624 392.104 362.216 392.104 361.664V354.296H394.96V352.448H392.104V348.776H389.968V352.448H388.024V354.296H389.968V362C389.968 363.08 390.232 363.872 390.76 364.376C391.264 364.88 392.128 365.12 393.328 365.12ZM404.796 363.584C404.916 364.184 405.252 364.592 405.804 364.832C406.356 365.072 407.1 365.12 408.084 365V363.272C407.652 363.368 407.316 363.344 407.1 363.176C406.86 363.032 406.74 362.768 406.74 362.384V356.264C406.74 354.968 406.356 353.96 405.564 353.264C404.772 352.568 403.668 352.208 402.204 352.208C400.98 352.208 399.9 352.52 399.012 353.144C398.124 353.792 397.5 354.632 397.188 355.712L399.228 356.24C399.42 355.52 399.756 354.992 400.26 354.632C400.74 354.272 401.364 354.104 402.132 354.104C402.948 354.104 403.572 354.296 403.98 354.68C404.388 355.064 404.604 355.616 404.604 356.36V356.888L401.556 357.512C399.876 357.872 398.676 358.376 397.932 359.024C397.188 359.672 396.804 360.536 396.804 361.616C396.804 362.696 397.188 363.56 397.98 364.208C398.748 364.88 399.732 365.216 400.932 365.216C401.748 365.216 402.492 365.072 403.188 364.784C403.86 364.496 404.388 364.088 404.796 363.584ZM401.196 363.464C400.5 363.464 399.948 363.296 399.54 362.936C399.132 362.6 398.94 362.12 398.94 361.52C398.94 360.896 399.18 360.392 399.66 360.008C400.116 359.648 400.956 359.336 402.156 359.096L404.604 358.568V360.728C404.604 361.52 404.268 362.168 403.62 362.672C402.972 363.2 402.156 363.464 401.196 363.464Z" fill="white"/>
<path opacity="0.8" fill-rule="evenodd" clip-rule="evenodd" d="M319 319.667C308.733 319.667 300.333 311.267 300.333 300.907C300.427 290.641 308.733 282.241 319.093 282.334C329.36 282.427 337.667 290.734 337.667 301.187C337.573 311.36 329.267 319.667 319 319.667Z" stroke="white" stroke-width="2" stroke-linecap="round" stroke-dasharray="0.25 5"/>
<path fill-rule="evenodd" clip-rule="evenodd" d="M319 310.333C313.867 310.333 309.667 306.133 309.667 300.954C309.713 295.82 313.867 291.62 319.047 291.667C324.18 291.714 328.333 295.867 328.333 301.094C328.287 306.18 324.133 310.333 319 310.333Z" stroke="white" stroke-width="2" stroke-linecap="round" stroke-dasharray="0.25 4"/>
<path opacity="0.6" fill-rule="evenodd" clip-rule="evenodd" d="M319 329C303.6 329 291 316.4 291 300.861C291.14 285.461 303.6 272.861 319.14 273.001C334.54 273.141 347 285.601 347 301.281C346.86 316.54 334.4 329 319 329Z" stroke="white" stroke-width="2" stroke-linecap="round" stroke-dasharray="0.25 6"/>
</svg>

