<svg width="400" height="400" viewBox="0 0 380 380" fill="none" xmlns="http://www.w3.org/2000/svg">
<path opacity="0.2" d="M364 190C364 237.323 345.108 280.234 314.454 311.602C282.861 343.932 238.774 364 190 364C136.429 364 88.513 339.791 56.5946 301.716C31.2564 271.49 16 232.527 16 190C16 142.677 34.892 99.7657 65.5455 68.3977C97.1388 36.0681 141.226 16 190 16C238.774 16 282.861 36.0681 314.454 68.3977C345.108 99.7657 364 142.677 364 190Z" stroke="white" stroke-width="32"/>
<path opacity="0.8" fill-rule="evenodd" clip-rule="evenodd" d="M190 190.667C179.733 190.667 171.333 182.267 171.333 171.907C171.427 161.641 179.733 153.241 190.093 153.334C200.36 153.427 208.667 161.734 208.667 172.187C208.573 182.36 200.267 190.667 190 190.667Z" stroke="white" stroke-width="2" stroke-linecap="round" stroke-dasharray="0.25 5"/>
<path fill-rule="evenodd" clip-rule="evenodd" d="M190 181.333C184.867 181.333 180.667 177.133 180.667 171.954C180.713 166.82 184.867 162.62 190.047 162.667C195.18 162.714 199.333 166.867 199.333 172.094C199.287 177.18 195.133 181.333 190 181.333Z" stroke="white" stroke-width="2" stroke-linecap="round" stroke-dasharray="0.25 4"/>
<path opacity="0.6" fill-rule="evenodd" clip-rule="evenodd" d="M190 200C174.6 200 162 187.4 162 171.861C162.14 156.461 174.6 143.861 190.14 144.001C205.54 144.141 218 156.601 218 172.281C217.86 187.54 205.4 200 190 200Z" stroke="white" stroke-width="2" stroke-linecap="round" stroke-dasharray="0.25 6"/>
</svg>
